# xmcd
#
# Track frame offsets: 
#        150
#        14425
#        27550
#        45762
#        55512
#        70360
#        85887
#        100207
#        115140
#        129380
#        142117
#        159970
#        172067
#        187135
#        197400
#        208287
#        219530
#        235430
#        250222
#
# Disc length: 3607 seconds
#
# Revision: 3
# Processed by: cddbd v1.5.2PL0 Copyright (c) Steve Scherf et al.
# Submitted via: ExactAudioCopy v1.0b1
#
DISCID=140e1513
DTITLE=Various Artist - I Love Country - Country Ladies
DYEAR=1988
DGENRE=Country
TTITLE0=Sweethearts Of Rodeo - Everywhere I Turn
TTITLE1=Tammy Wynette - Womanhood
TTITLE2=Rosanne Cash - Runaway Train
TTITLE3=Charly McClain - Who's Cheating Who
TTITLE4=Janie Fricke - Let's Stop Talkin' About It
TTITLE5=Crystal Gayle - Livin' In These Troubled Times
TTITLE6=Lacy J. Dalton - 16th Avenue
TTITLE7=Rosanne Cash - I Don't Know Why You Don't Want Me
TTITLE8=Mary Chapin Carpenter - A Road Is Just A Road
TTITLE9=Rattlesnake Annie - Somewhere South Of Macao
TTITLE10=Barbara Fairchild - Mississippi
TTITLE11=Tammy Wynette - Stand By Your Man
TTITLE12=Charly McClain - In Your Eyes
TTITLE13=Lacy J. Dalton - Have I Got A Heart For You
TTITLE14=Tanya Tucker - Would You Lay With Me
TTITLE15=Suzanne Prentice - A Little Bit Of The Rain
TTITLE16=Lynn Anderson - Sea Of Heart Break
TTITLE17=Jewel Blanch - I'm Not Losin' Any Sleep
TTITLE18=Dolly Parton - The River Unbroken
EXTD=(c)1988 CBS France\nupc 5099746113025
EXTT0=
EXTT1=
EXTT2=
EXTT3=
EXTT4=
EXTT5=
EXTT6=
EXTT7=
EXTT8=
EXTT9=
EXTT10=
EXTT11=
EXTT12=
EXTT13=
EXTT14=
EXTT15=
EXTT16=
EXTT17=
EXTT18=
PLAYORDER=
